<svg xmlns="http://www.w3.org/2000/svg" viewBox="0 0 1754 897" width="1754" height="897">
  <title>Abundios Cleaning Logo</title>
  <path fill="#E90A46" fill-rule="evenodd" d="M 833.0 740.0 L 830.0 740.0 L 830.0 744.0 L 831.0 745.0 L 829.0 746.0 L 829.0 747.0 L 831.0 747.0 L 833.0 745.0 Z"/>
  <path fill="#E90A46" fill-rule="evenodd" d="M 1455.0 718.0 L 1455.0 744.0 L 1473.0 744.0 L 1474.0 743.0 L 1473.0 741.0 L 1459.0 741.0 L 1458.0 740.0 L 1458.0 733.0 L 1459.0 732.0 L 1472.0 732.0 L 1472.0 730.0 L 1460.0 730.0 L 1458.0 728.0 L 1458.0 721.0 L 1459.0 720.0 L 1474.0 720.0 L 1474.0 718.0 Z"/>
  <path fill="#E90A46" fill-rule="evenodd" d="M 1435.0 718.0 L 1417.0 718.0 L 1417.0 744.0 L 1419.0 744.0 L 1419.0 733.0 L 1420.0 732.0 L 1434.0 732.0 L 1433.0 730.0 L 1420.0 730.0 L 1419.0 729.0 L 1419.0 722.0 L 1421.0 720.0 L 1435.0 720.0 Z"/>
  <path fill="#E90A46" fill-rule="evenodd" d="M 1393.0 718.0 L 1393.0 723.0 L 1392.0 724.0 L 1392.0 729.0 L 1393.0 730.0 L 1393.0 734.0 L 1392.0 735.0 L 1392.0 743.0 L 1393.0 744.0 L 1395.0 744.0 L 1395.0 718.0 Z"/>
  <path fill="#E90A46" fill-rule="evenodd" d="M 1355.0 718.0 L 1355.0 744.0 L 1372.0 744.0 L 1372.0 741.0 L 1359.0 741.0 L 1358.0 740.0 L 1358.0 718.0 Z"/>
  <path fill="#E90A46" fill-rule="evenodd" d="M 1290.0 718.0 L 1290.0 720.0 L 1297.0 720.0 L 1298.0 721.0 L 1298.0 743.0 L 1299.0 744.0 L 1301.0 744.0 L 1301.0 721.0 L 1302.0 720.0 L 1310.0 720.0 L 1310.0 718.0 Z"/>
  <path fill="#E90A46" fill-rule="evenodd" d="M 1248.0 718.0 L 1248.0 743.0 L 1249.0 744.0 L 1251.0 743.0 L 1251.0 725.0 L 1252.0 724.0 L 1256.0 728.0 L 1268.0 744.0 L 1270.0 744.0 L 1270.0 718.0 L 1268.0 718.0 L 1267.0 719.0 L 1267.0 735.0 L 1268.0 736.0 L 1267.0 737.0 L 1264.0 735.0 L 1251.0 718.0 Z"/>
  <path fill="#E90A46" fill-rule="evenodd" d="M 1215.0 718.0 L 1210.0 727.0 L 1210.0 729.0 L 1204.0 740.0 L 1203.0 744.0 L 1205.0 744.0 L 1209.0 737.0 L 1223.0 737.0 L 1225.0 740.0 L 1225.0 742.0 L 1228.0 744.0 L 1228.0 741.0 L 1224.0 734.0 L 1224.0 732.0 L 1220.0 725.0 L 1220.0 723.0 L 1217.0 718.0 Z M 1216.0 722.0 L 1219.0 727.0 L 1219.0 729.0 L 1221.0 733.0 L 1220.0 734.0 L 1211.0 734.0 L 1210.0 733.0 L 1214.0 726.0 L 1214.0 724.0 Z"/>
  <path fill="#E90A46" fill-rule="evenodd" d="M 1163.0 718.0 L 1163.0 743.0 L 1164.0 744.0 L 1175.0 744.0 L 1180.0 742.0 L 1184.0 738.0 L 1186.0 734.0 L 1186.0 727.0 L 1184.0 723.0 L 1181.0 720.0 L 1176.0 718.0 Z M 1167.0 720.0 L 1174.0 720.0 L 1175.0 721.0 L 1177.0 721.0 L 1179.0 722.0 L 1183.0 727.0 L 1183.0 734.0 L 1182.0 736.0 L 1176.0 741.0 L 1167.0 741.0 L 1166.0 740.0 L 1166.0 721.0 Z"/>
  <path fill="#E90A46" fill-rule="evenodd" d="M 1120.0 718.0 L 1120.0 744.0 L 1122.0 744.0 L 1122.0 728.0 L 1123.0 727.0 L 1122.0 725.0 L 1123.0 724.0 L 1125.0 725.0 L 1135.0 739.0 L 1140.0 744.0 L 1141.0 744.0 L 1142.0 743.0 L 1142.0 719.0 L 1141.0 718.0 L 1139.0 718.0 L 1139.0 736.0 L 1138.0 737.0 L 1133.0 732.0 L 1123.0 718.0 Z"/>
  <path fill="#E90A46" fill-rule="evenodd" d="M 1077.0 718.0 L 1077.0 737.0 L 1079.0 741.0 L 1084.0 744.0 L 1091.0 744.0 L 1092.0 743.0 L 1094.0 743.0 L 1098.0 738.0 L 1098.0 718.0 L 1096.0 718.0 L 1096.0 735.0 L 1095.0 736.0 L 1095.0 738.0 L 1092.0 741.0 L 1090.0 741.0 L 1089.0 742.0 L 1084.0 741.0 L 1080.0 737.0 L 1080.0 719.0 L 1079.0 718.0 Z"/>
  <path fill="#E90A46" fill-rule="evenodd" d="M 1037.0 718.0 L 1036.0 719.0 L 1036.0 743.0 L 1037.0 744.0 L 1051.0 744.0 L 1055.0 742.0 L 1057.0 739.0 L 1057.0 734.0 L 1053.0 730.0 L 1055.0 728.0 L 1055.0 726.0 L 1056.0 725.0 L 1055.0 721.0 L 1051.0 718.0 Z M 1039.0 733.0 L 1040.0 732.0 L 1051.0 732.0 L 1054.0 734.0 L 1054.0 736.0 L 1055.0 737.0 L 1054.0 739.0 L 1051.0 741.0 L 1040.0 741.0 L 1039.0 740.0 Z M 1039.0 721.0 L 1040.0 720.0 L 1049.0 720.0 L 1053.0 723.0 L 1053.0 726.0 L 1050.0 729.0 L 1048.0 729.0 L 1047.0 730.0 L 1040.0 730.0 L 1039.0 729.0 Z"/>
  <path fill="#E90A46" fill-rule="evenodd" d="M 1002.0 718.0 L 1000.0 722.0 L 1000.0 724.0 L 993.0 737.0 L 991.0 744.0 L 993.0 744.0 L 997.0 737.0 L 1010.0 737.0 L 1012.0 739.0 L 1014.0 744.0 L 1016.0 744.0 L 1016.0 741.0 L 1010.0 730.0 L 1010.0 728.0 L 1005.0 718.0 Z M 1004.0 722.0 L 1009.0 733.0 L 1008.0 734.0 L 999.0 734.0 L 998.0 733.0 L 999.0 732.0 L 999.0 730.0 L 1002.0 724.0 Z"/>
  <path fill="#E90A46" fill-rule="evenodd" d="M 923.0 718.0 L 923.0 743.0 L 924.0 744.0 L 926.0 744.0 L 926.0 725.0 L 927.0 724.0 L 936.0 734.0 L 941.0 742.0 L 945.0 744.0 L 945.0 718.0 L 943.0 718.0 L 943.0 731.0 L 941.0 736.0 L 936.0 731.0 L 929.0 721.0 L 926.0 718.0 Z"/>
  <path fill="#E90A46" fill-rule="evenodd" d="M 889.0 718.0 L 887.0 722.0 L 887.0 724.0 L 878.0 742.0 L 878.0 744.0 L 880.0 744.0 L 881.0 743.0 L 882.0 739.0 L 884.0 737.0 L 898.0 737.0 L 901.0 744.0 L 903.0 744.0 L 902.0 739.0 L 896.0 728.0 L 896.0 726.0 L 893.0 721.0 L 893.0 719.0 L 892.0 718.0 Z M 891.0 722.0 L 896.0 733.0 L 895.0 734.0 L 886.0 734.0 L 885.0 733.0 L 886.0 732.0 L 886.0 730.0 L 889.0 724.0 Z"/>
  <path fill="#E90A46" fill-rule="evenodd" d="M 791.0 718.0 L 791.0 720.0 L 790.0 721.0 L 790.0 742.0 L 791.0 744.0 L 809.0 744.0 L 809.0 741.0 L 794.0 741.0 L 793.0 740.0 L 793.0 733.0 L 794.0 732.0 L 807.0 732.0 L 807.0 730.0 L 794.0 729.0 L 793.0 728.0 L 793.0 721.0 L 794.0 720.0 L 809.0 720.0 L 809.0 718.0 Z"/>
  <path fill="#E90A46" fill-rule="evenodd" d="M 744.0 718.0 L 744.0 744.0 L 746.0 744.0 L 747.0 743.0 L 747.0 726.0 L 746.0 725.0 L 747.0 724.0 L 749.0 725.0 L 756.0 736.0 L 757.0 736.0 L 765.0 724.0 L 766.0 725.0 L 766.0 743.0 L 768.0 744.0 L 769.0 743.0 L 769.0 718.0 L 766.0 718.0 L 757.0 731.0 L 755.0 730.0 L 747.0 718.0 Z"/>
  <path fill="#E90A46" fill-rule="evenodd" d="M 706.0 718.0 L 702.0 720.0 L 699.0 723.0 L 697.0 727.0 L 697.0 735.0 L 699.0 739.0 L 706.0 744.0 L 714.0 744.0 L 718.0 742.0 L 721.0 739.0 L 723.0 735.0 L 723.0 727.0 L 722.0 726.0 L 722.0 724.0 L 717.0 719.0 L 715.0 718.0 Z M 707.0 720.0 L 713.0 720.0 L 715.0 721.0 L 720.0 727.0 L 720.0 735.0 L 719.0 737.0 L 716.0 740.0 L 711.0 742.0 L 704.0 740.0 L 700.0 735.0 L 700.0 727.0 L 701.0 725.0 Z"/>
  <path fill="#E90A46" fill-rule="evenodd" d="M 655.0 718.0 L 655.0 743.0 L 656.0 744.0 L 658.0 743.0 L 658.0 733.0 L 659.0 732.0 L 672.0 732.0 L 673.0 733.0 L 673.0 743.0 L 675.0 744.0 L 676.0 743.0 L 676.0 718.0 L 673.0 718.0 L 673.0 729.0 L 672.0 730.0 L 659.0 730.0 L 658.0 729.0 L 658.0 718.0 Z"/>
  <path fill="#E90A46" fill-rule="evenodd" d="M 586.0 718.0 L 586.0 743.0 L 587.0 744.0 L 589.0 743.0 L 589.0 725.0 L 590.0 724.0 L 600.0 736.0 L 602.0 740.0 L 606.0 744.0 L 607.0 744.0 L 608.0 743.0 L 608.0 718.0 L 605.0 718.0 L 605.0 736.0 L 604.0 737.0 L 593.0 724.0 L 589.0 718.0 Z"/>
  <path fill="#E90A46" fill-rule="evenodd" d="M 551.0 718.0 L 550.0 722.0 L 540.0 742.0 L 540.0 744.0 L 542.0 744.0 L 546.0 737.0 L 560.0 737.0 L 562.0 742.0 L 565.0 744.0 L 565.0 741.0 L 560.0 732.0 L 560.0 730.0 L 555.0 721.0 L 555.0 719.0 L 554.0 718.0 Z M 553.0 722.0 L 558.0 733.0 L 557.0 734.0 L 548.0 734.0 L 547.0 732.0 L 551.0 724.0 Z"/>
  <path fill="#E90A46" fill-rule="evenodd" d="M 502.0 718.0 L 502.0 743.0 L 503.0 744.0 L 521.0 744.0 L 521.0 741.0 L 506.0 741.0 L 505.0 740.0 L 505.0 733.0 L 506.0 732.0 L 519.0 732.0 L 519.0 730.0 L 506.0 730.0 L 505.0 729.0 L 505.0 721.0 L 506.0 720.0 L 521.0 720.0 L 521.0 718.0 Z"/>
  <path fill="#E90A46" fill-rule="evenodd" d="M 465.0 718.0 L 465.0 721.0 L 464.0 722.0 L 464.0 743.0 L 465.0 744.0 L 481.0 744.0 L 482.0 743.0 L 481.0 741.0 L 468.0 741.0 L 467.0 740.0 L 467.0 718.0 Z"/>
  <path fill="#E90A46" fill-rule="evenodd" d="M 430.0 718.0 L 426.0 720.0 L 423.0 723.0 L 421.0 727.0 L 421.0 735.0 L 423.0 739.0 L 426.0 742.0 L 430.0 744.0 L 438.0 744.0 L 442.0 742.0 L 444.0 739.0 L 442.0 738.0 L 440.0 740.0 L 435.0 742.0 L 430.0 741.0 L 424.0 734.0 L 424.0 728.0 L 426.0 724.0 L 432.0 720.0 L 437.0 720.0 L 442.0 723.0 L 443.0 723.0 L 444.0 721.0 L 439.0 718.0 Z"/>
  <path fill="#E90A46" fill-rule="evenodd" d="M 362.0 718.0 L 356.0 730.0 L 356.0 732.0 L 351.0 741.0 L 351.0 744.0 L 353.0 744.0 L 355.0 739.0 L 357.0 737.0 L 370.0 737.0 L 372.0 739.0 L 373.0 743.0 L 374.0 744.0 L 376.0 744.0 L 376.0 742.0 L 372.0 735.0 L 372.0 733.0 L 367.0 724.0 L 367.0 722.0 L 365.0 718.0 Z M 363.0 722.0 L 367.0 728.0 L 367.0 730.0 L 369.0 733.0 L 368.0 734.0 L 359.0 734.0 L 358.0 733.0 Z"/>
  <path fill="#E90A46" fill-rule="evenodd" d="M 1391.0 642.0 L 1391.0 647.0 L 1392.0 648.0 L 1396.0 648.0 L 1397.0 647.0 L 1418.0 647.0 L 1419.0 648.0 L 1421.0 647.0 L 1602.0 647.0 L 1602.0 642.0 Z"/>
  <path fill="#E90A46" fill-rule="evenodd" d="M 187.0 643.0 L 187.0 647.0 L 414.0 647.0 L 414.0 643.0 L 413.0 642.0 L 188.0 642.0 Z"/>
  <path fill="#E90A46" fill-rule="evenodd" d="M 1398.0 436.0 L 1394.0 435.0 L 1393.0 436.0 L 1388.0 436.0 L 1387.0 437.0 L 1382.0 438.0 L 1372.0 443.0 L 1368.0 447.0 L 1367.0 447.0 L 1361.0 453.0 L 1353.0 467.0 L 1352.0 473.0 L 1351.0 474.0 L 1351.0 480.0 L 1352.0 481.0 L 1356.0 481.0 L 1358.0 479.0 L 1358.0 475.0 L 1359.0 474.0 L 1360.0 468.0 L 1364.0 461.0 L 1370.0 454.0 L 1378.0 448.0 L 1384.0 445.0 L 1398.0 442.0 L 1399.0 440.0 Z"/>
  <path fill="#E90A46" fill-rule="evenodd" d="M 1274.0 421.0 L 1272.0 421.0 L 1266.0 424.0 L 1264.0 424.0 L 1248.0 430.0 L 1245.0 430.0 L 1238.0 433.0 L 1238.0 437.0 L 1239.0 438.0 L 1244.0 439.0 L 1249.0 444.0 L 1250.0 446.0 L 1250.0 450.0 L 1251.0 451.0 L 1251.0 491.0 L 1250.0 492.0 L 1250.0 504.0 L 1251.0 505.0 L 1251.0 530.0 L 1250.0 531.0 L 1250.0 538.0 L 1243.0 546.0 L 1238.0 547.0 L 1238.0 553.0 L 1288.0 553.0 L 1289.0 552.0 L 1289.0 548.0 L 1286.0 546.0 L 1284.0 546.0 L 1280.0 543.0 L 1277.0 538.0 L 1277.0 535.0 L 1276.0 534.0 L 1276.0 423.0 Z"/>
  <path fill="#E90A46" fill-rule="evenodd" d="M 825.0 433.0 L 825.0 438.0 L 831.0 439.0 L 836.0 444.0 L 838.0 450.0 L 838.0 535.0 L 833.0 544.0 L 830.0 546.0 L 825.0 547.0 L 825.0 553.0 L 875.0 553.0 L 875.0 547.0 L 868.0 545.0 L 865.0 542.0 L 863.0 537.0 L 863.0 460.0 L 866.0 454.0 L 875.0 444.0 L 883.0 439.0 L 892.0 436.0 L 907.0 436.0 L 915.0 439.0 L 924.0 446.0 L 927.0 450.0 L 931.0 460.0 L 931.0 465.0 L 932.0 466.0 L 932.0 534.0 L 928.0 543.0 L 919.0 548.0 L 919.0 552.0 L 920.0 553.0 L 969.0 553.0 L 969.0 548.0 L 962.0 545.0 L 958.0 540.0 L 957.0 537.0 L 957.0 462.0 L 956.0 461.0 L 956.0 456.0 L 950.0 441.0 L 940.0 430.0 L 934.0 426.0 L 924.0 422.0 L 920.0 422.0 L 919.0 421.0 L 901.0 421.0 L 883.0 427.0 L 874.0 433.0 L 864.0 443.0 L 863.0 442.0 L 863.0 423.0 L 861.0 421.0 L 859.0 421.0 L 853.0 424.0 Z"/>
  <path fill="#E90A46" fill-rule="evenodd" d="M 625.0 433.0 L 625.0 438.0 L 628.0 438.0 L 632.0 440.0 L 635.0 443.0 L 637.0 449.0 L 637.0 516.0 L 638.0 517.0 L 638.0 522.0 L 642.0 533.0 L 646.0 539.0 L 655.0 548.0 L 664.0 553.0 L 674.0 556.0 L 682.0 556.0 L 683.0 557.0 L 696.0 556.0 L 715.0 549.0 L 726.0 541.0 L 733.0 533.0 L 735.0 534.0 L 734.0 535.0 L 735.0 537.0 L 734.0 552.0 L 737.0 556.0 L 756.0 551.0 L 760.0 551.0 L 765.0 549.0 L 769.0 549.0 L 774.0 547.0 L 774.0 544.0 L 766.0 541.0 L 761.0 536.0 L 760.0 533.0 L 760.0 496.0 L 759.0 495.0 L 759.0 491.0 L 760.0 490.0 L 760.0 479.0 L 759.0 478.0 L 760.0 477.0 L 759.0 475.0 L 760.0 474.0 L 760.0 454.0 L 759.0 453.0 L 759.0 430.0 L 760.0 429.0 L 760.0 424.0 L 758.0 421.0 L 722.0 433.0 L 722.0 437.0 L 728.0 439.0 L 733.0 444.0 L 735.0 451.0 L 735.0 515.0 L 730.0 524.0 L 720.0 534.0 L 711.0 539.0 L 701.0 542.0 L 688.0 542.0 L 675.0 537.0 L 668.0 530.0 L 664.0 522.0 L 664.0 519.0 L 663.0 518.0 L 663.0 501.0 L 662.0 500.0 L 662.0 457.0 L 663.0 456.0 L 663.0 451.0 L 662.0 450.0 L 662.0 445.0 L 663.0 444.0 L 662.0 427.0 L 663.0 424.0 L 662.0 422.0 L 658.0 421.0 L 655.0 423.0 Z"/>
  <path fill="#E90A46" fill-rule="evenodd" d="M 1552.0 420.0 L 1551.0 421.0 L 1544.0 421.0 L 1543.0 422.0 L 1537.0 423.0 L 1526.0 429.0 L 1518.0 437.0 L 1513.0 448.0 L 1513.0 465.0 L 1519.0 477.0 L 1527.0 485.0 L 1541.0 493.0 L 1543.0 493.0 L 1550.0 497.0 L 1559.0 500.0 L 1572.0 507.0 L 1581.0 517.0 L 1582.0 520.0 L 1582.0 530.0 L 1579.0 536.0 L 1572.0 543.0 L 1568.0 545.0 L 1562.0 546.0 L 1561.0 547.0 L 1548.0 547.0 L 1547.0 546.0 L 1543.0 546.0 L 1542.0 545.0 L 1536.0 544.0 L 1528.0 539.0 L 1520.0 529.0 L 1514.0 514.0 L 1513.0 513.0 L 1510.0 513.0 L 1509.0 514.0 L 1509.0 544.0 L 1518.0 548.0 L 1520.0 548.0 L 1523.0 550.0 L 1532.0 553.0 L 1535.0 553.0 L 1536.0 554.0 L 1548.0 555.0 L 1549.0 556.0 L 1561.0 556.0 L 1562.0 555.0 L 1568.0 555.0 L 1569.0 554.0 L 1576.0 553.0 L 1587.0 548.0 L 1591.0 545.0 L 1598.0 538.0 L 1602.0 531.0 L 1604.0 525.0 L 1604.0 521.0 L 1605.0 520.0 L 1605.0 512.0 L 1604.0 511.0 L 1604.0 507.0 L 1602.0 501.0 L 1598.0 495.0 L 1592.0 489.0 L 1570.0 477.0 L 1568.0 477.0 L 1545.0 466.0 L 1537.0 458.0 L 1534.0 449.0 L 1536.0 440.0 L 1542.0 433.0 L 1548.0 430.0 L 1552.0 430.0 L 1553.0 429.0 L 1563.0 429.0 L 1564.0 430.0 L 1568.0 430.0 L 1574.0 432.0 L 1576.0 434.0 L 1579.0 435.0 L 1588.0 445.0 L 1592.0 454.0 L 1592.0 456.0 L 1593.0 457.0 L 1597.0 457.0 L 1597.0 429.0 L 1579.0 423.0 L 1576.0 423.0 L 1575.0 422.0 L 1562.0 421.0 L 1561.0 420.0 Z"/>
  <path fill="#E90A46" fill-rule="evenodd" d="M 1391.0 413.0 L 1390.0 414.0 L 1386.0 414.0 L 1385.0 415.0 L 1378.0 416.0 L 1366.0 421.0 L 1354.0 429.0 L 1344.0 439.0 L 1337.0 449.0 L 1330.0 465.0 L 1329.0 473.0 L 1328.0 474.0 L 1328.0 496.0 L 1329.0 497.0 L 1329.0 501.0 L 1330.0 502.0 L 1331.0 508.0 L 1339.0 524.0 L 1346.0 532.0 L 1346.0 533.0 L 1357.0 543.0 L 1369.0 550.0 L 1371.0 550.0 L 1374.0 552.0 L 1376.0 552.0 L 1380.0 554.0 L 1383.0 554.0 L 1384.0 555.0 L 1388.0 555.0 L 1389.0 556.0 L 1412.0 556.0 L 1413.0 555.0 L 1417.0 555.0 L 1418.0 554.0 L 1421.0 554.0 L 1422.0 553.0 L 1427.0 552.0 L 1441.0 545.0 L 1449.0 538.0 L 1450.0 538.0 L 1460.0 527.0 L 1468.0 513.0 L 1468.0 511.0 L 1470.0 508.0 L 1471.0 502.0 L 1472.0 501.0 L 1473.0 491.0 L 1474.0 490.0 L 1473.0 474.0 L 1472.0 473.0 L 1472.0 469.0 L 1471.0 468.0 L 1471.0 465.0 L 1470.0 464.0 L 1469.0 459.0 L 1461.0 444.0 L 1458.0 440.0 L 1443.0 426.0 L 1429.0 418.0 L 1427.0 418.0 L 1420.0 415.0 L 1412.0 414.0 L 1411.0 413.0 Z M 1392.0 420.0 L 1409.0 420.0 L 1410.0 421.0 L 1414.0 421.0 L 1415.0 422.0 L 1418.0 422.0 L 1419.0 423.0 L 1422.0 423.0 L 1425.0 425.0 L 1427.0 425.0 L 1438.0 431.0 L 1453.0 445.0 L 1461.0 458.0 L 1461.0 460.0 L 1463.0 463.0 L 1465.0 473.0 L 1466.0 474.0 L 1466.0 496.0 L 1465.0 497.0 L 1463.0 507.0 L 1454.0 523.0 L 1446.0 532.0 L 1434.0 541.0 L 1423.0 546.0 L 1420.0 546.0 L 1419.0 547.0 L 1416.0 547.0 L 1411.0 549.0 L 1390.0 549.0 L 1389.0 548.0 L 1385.0 548.0 L 1384.0 547.0 L 1381.0 547.0 L 1380.0 546.0 L 1375.0 545.0 L 1361.0 537.0 L 1350.0 527.0 L 1344.0 519.0 L 1339.0 509.0 L 1339.0 507.0 L 1336.0 500.0 L 1336.0 496.0 L 1335.0 495.0 L 1335.0 474.0 L 1336.0 473.0 L 1337.0 466.0 L 1341.0 458.0 L 1341.0 456.0 L 1349.0 444.0 L 1358.0 435.0 L 1370.0 427.0 L 1383.0 422.0 L 1391.0 421.0 Z"/>
  <path fill="#E90A46" fill-rule="evenodd" d="M 1260.0 362.0 L 1255.0 364.0 L 1251.0 368.0 L 1248.0 375.0 L 1248.0 380.0 L 1249.0 381.0 L 1249.0 383.0 L 1254.0 389.0 L 1258.0 391.0 L 1268.0 391.0 L 1275.0 386.0 L 1278.0 379.0 L 1278.0 375.0 L 1277.0 374.0 L 1276.0 369.0 L 1271.0 364.0 L 1267.0 362.0 Z"/>
  <path fill="#E90A46" fill-rule="evenodd" d="M 260.0 350.0 L 260.0 356.0 L 265.0 358.0 L 270.0 364.0 L 270.0 371.0 L 207.0 526.0 L 202.0 535.0 L 194.0 543.0 L 184.0 547.0 L 184.0 552.0 L 185.0 553.0 L 235.0 553.0 L 235.0 546.0 L 231.0 546.0 L 226.0 544.0 L 220.0 538.0 L 219.0 527.0 L 233.0 491.0 L 237.0 485.0 L 315.0 485.0 L 319.0 491.0 L 335.0 532.0 L 333.0 540.0 L 330.0 543.0 L 320.0 547.0 L 320.0 553.0 L 385.0 553.0 L 385.0 546.0 L 377.0 544.0 L 369.0 537.0 L 364.0 527.0 L 360.0 515.0 L 346.0 484.0 L 342.0 472.0 L 339.0 467.0 L 325.0 431.0 L 307.0 390.0 L 301.0 373.0 L 298.0 368.0 L 293.0 353.0 L 290.0 350.0 Z M 276.0 389.0 L 281.0 398.0 L 284.0 408.0 L 288.0 415.0 L 288.0 417.0 L 290.0 420.0 L 290.0 422.0 L 292.0 425.0 L 292.0 427.0 L 294.0 430.0 L 294.0 432.0 L 296.0 435.0 L 296.0 437.0 L 298.0 440.0 L 300.0 447.0 L 308.0 464.0 L 308.0 466.0 L 311.0 472.0 L 310.0 474.0 L 242.0 474.0 L 241.0 473.0 L 246.0 462.0 L 246.0 460.0 L 248.0 457.0 L 248.0 455.0 L 251.0 450.0 L 251.0 448.0 L 253.0 445.0 L 253.0 443.0 L 255.0 440.0 L 255.0 438.0 L 257.0 435.0 L 257.0 433.0 L 259.0 430.0 L 259.0 428.0 L 261.0 425.0 L 263.0 418.0 L 266.0 413.0 L 266.0 411.0 L 268.0 408.0 L 268.0 406.0 L 270.0 403.0 L 272.0 396.0 Z"/>
  <path fill="#E90A46" fill-rule="evenodd" d="M 1152.0 340.0 L 1144.0 342.0 L 1141.0 344.0 L 1126.0 349.0 L 1117.0 351.0 L 1115.0 353.0 L 1115.0 356.0 L 1116.0 357.0 L 1121.0 358.0 L 1126.0 362.0 L 1129.0 369.0 L 1129.0 437.0 L 1128.0 438.0 L 1115.0 428.0 L 1104.0 423.0 L 1096.0 422.0 L 1095.0 421.0 L 1078.0 421.0 L 1077.0 422.0 L 1073.0 422.0 L 1072.0 423.0 L 1063.0 425.0 L 1047.0 434.0 L 1036.0 445.0 L 1027.0 460.0 L 1027.0 462.0 L 1023.0 471.0 L 1022.0 482.0 L 1021.0 483.0 L 1021.0 496.0 L 1022.0 497.0 L 1022.0 502.0 L 1023.0 503.0 L 1023.0 507.0 L 1024.0 508.0 L 1025.0 514.0 L 1031.0 527.0 L 1036.0 534.0 L 1045.0 543.0 L 1060.0 552.0 L 1069.0 555.0 L 1080.0 556.0 L 1081.0 557.0 L 1098.0 556.0 L 1099.0 555.0 L 1108.0 553.0 L 1116.0 549.0 L 1130.0 538.0 L 1137.0 545.0 L 1147.0 551.0 L 1153.0 552.0 L 1154.0 553.0 L 1169.0 553.0 L 1169.0 547.0 L 1162.0 545.0 L 1157.0 540.0 L 1154.0 532.0 L 1154.0 342.0 Z M 1085.0 432.0 L 1096.0 432.0 L 1097.0 433.0 L 1101.0 433.0 L 1102.0 434.0 L 1107.0 435.0 L 1109.0 437.0 L 1112.0 438.0 L 1116.0 441.0 L 1124.0 450.0 L 1129.0 462.0 L 1129.0 517.0 L 1128.0 518.0 L 1128.0 520.0 L 1121.0 532.0 L 1114.0 539.0 L 1106.0 544.0 L 1104.0 544.0 L 1100.0 546.0 L 1097.0 546.0 L 1096.0 547.0 L 1085.0 547.0 L 1084.0 546.0 L 1081.0 546.0 L 1069.0 540.0 L 1061.0 532.0 L 1057.0 526.0 L 1053.0 518.0 L 1053.0 516.0 L 1050.0 509.0 L 1049.0 500.0 L 1048.0 499.0 L 1048.0 476.0 L 1049.0 475.0 L 1049.0 471.0 L 1050.0 470.0 L 1051.0 463.0 L 1056.0 452.0 L 1061.0 445.0 L 1070.0 437.0 L 1076.0 434.0 L 1084.0 433.0 Z"/>
  <path fill="#E90A46" fill-rule="evenodd" d="M 431.0 351.0 L 430.0 352.0 L 430.0 357.0 L 435.0 358.0 L 439.0 361.0 L 442.0 366.0 L 442.0 371.0 L 443.0 372.0 L 442.0 375.0 L 442.0 386.0 L 443.0 387.0 L 443.0 405.0 L 442.0 406.0 L 442.0 412.0 L 443.0 413.0 L 443.0 420.0 L 442.0 421.0 L 442.0 432.0 L 443.0 433.0 L 443.0 457.0 L 442.0 458.0 L 442.0 464.0 L 443.0 465.0 L 443.0 473.0 L 442.0 474.0 L 442.0 482.0 L 443.0 483.0 L 442.0 486.0 L 442.0 499.0 L 443.0 500.0 L 443.0 505.0 L 442.0 506.0 L 442.0 530.0 L 443.0 531.0 L 443.0 535.0 L 442.0 536.0 L 441.0 554.0 L 442.0 555.0 L 446.0 555.0 L 464.0 538.0 L 477.0 548.0 L 487.0 553.0 L 497.0 555.0 L 498.0 556.0 L 505.0 556.0 L 506.0 557.0 L 523.0 556.0 L 524.0 555.0 L 534.0 553.0 L 545.0 548.0 L 557.0 539.0 L 564.0 531.0 L 568.0 525.0 L 576.0 507.0 L 577.0 499.0 L 578.0 498.0 L 578.0 474.0 L 577.0 473.0 L 576.0 465.0 L 571.0 453.0 L 562.0 440.0 L 553.0 432.0 L 540.0 425.0 L 531.0 422.0 L 527.0 422.0 L 526.0 421.0 L 505.0 421.0 L 504.0 422.0 L 496.0 423.0 L 484.0 428.0 L 474.0 435.0 L 469.0 440.0 L 468.0 439.0 L 468.0 341.0 L 467.0 340.0 L 464.0 340.0 L 461.0 342.0 L 437.0 350.0 Z M 504.0 432.0 L 516.0 433.0 L 522.0 436.0 L 524.0 436.0 L 526.0 438.0 L 529.0 439.0 L 541.0 451.0 L 547.0 462.0 L 547.0 464.0 L 550.0 471.0 L 550.0 474.0 L 551.0 475.0 L 551.0 480.0 L 552.0 481.0 L 552.0 500.0 L 551.0 501.0 L 551.0 506.0 L 550.0 507.0 L 550.0 510.0 L 549.0 511.0 L 547.0 519.0 L 544.0 525.0 L 540.0 531.0 L 530.0 541.0 L 523.0 545.0 L 517.0 546.0 L 516.0 547.0 L 501.0 547.0 L 500.0 546.0 L 493.0 545.0 L 487.0 542.0 L 476.0 532.0 L 473.0 526.0 L 471.0 524.0 L 471.0 522.0 L 468.0 516.0 L 468.0 458.0 L 469.0 457.0 L 469.0 455.0 L 472.0 450.0 L 482.0 440.0 L 494.0 434.0 L 503.0 433.0 Z"/>
  <path fill="#E90A46" fill-rule="evenodd" d="M 700.0 282.0 L 699.0 295.0 L 698.0 296.0 L 697.0 302.0 L 692.0 306.0 L 683.0 307.0 L 682.0 308.0 L 676.0 308.0 L 676.0 309.0 L 687.0 310.0 L 688.0 311.0 L 691.0 311.0 L 696.0 314.0 L 698.0 319.0 L 698.0 322.0 L 699.0 323.0 L 700.0 335.0 L 701.0 335.0 L 701.0 327.0 L 702.0 326.0 L 702.0 323.0 L 703.0 322.0 L 703.0 319.0 L 705.0 314.0 L 708.0 312.0 L 711.0 312.0 L 712.0 311.0 L 719.0 310.0 L 720.0 309.0 L 725.0 309.0 L 725.0 308.0 L 719.0 308.0 L 718.0 307.0 L 709.0 306.0 L 704.0 302.0 L 704.0 299.0 L 702.0 294.0 L 702.0 290.0 L 701.0 289.0 L 701.0 282.0 Z"/>
  <path fill="#E90A46" fill-rule="evenodd" d="M 611.0 216.0 L 611.0 222.0 L 610.0 223.0 L 610.0 231.0 L 609.0 232.0 L 608.0 243.0 L 607.0 244.0 L 606.0 251.0 L 603.0 258.0 L 600.0 261.0 L 596.0 263.0 L 588.0 264.0 L 587.0 265.0 L 583.0 265.0 L 582.0 266.0 L 577.0 266.0 L 576.0 267.0 L 567.0 267.0 L 566.0 269.0 L 576.0 269.0 L 577.0 270.0 L 587.0 271.0 L 588.0 272.0 L 598.0 274.0 L 603.0 278.0 L 607.0 289.0 L 607.0 293.0 L 608.0 294.0 L 608.0 298.0 L 609.0 299.0 L 609.0 304.0 L 610.0 305.0 L 610.0 313.0 L 611.0 314.0 L 611.0 319.0 L 612.0 319.0 L 614.0 298.0 L 615.0 297.0 L 616.0 288.0 L 617.0 287.0 L 619.0 279.0 L 623.0 275.0 L 625.0 275.0 L 632.0 272.0 L 636.0 272.0 L 637.0 271.0 L 641.0 271.0 L 642.0 270.0 L 647.0 270.0 L 648.0 269.0 L 657.0 269.0 L 657.0 267.0 L 648.0 267.0 L 647.0 266.0 L 636.0 265.0 L 635.0 264.0 L 625.0 262.0 L 620.0 258.0 L 618.0 254.0 L 616.0 244.0 L 615.0 243.0 L 614.0 233.0 L 613.0 232.0 L 613.0 225.0 L 612.0 224.0 L 612.0 216.0 Z"/>
  <path fill="#E90A46" fill-rule="evenodd" d="M 783.0 333.0 L 784.0 334.0 L 910.0 252.0 L 977.0 211.0 L 1003.0 197.0 L 1230.0 341.0 L 1191.0 305.0 L 1191.0 225.0 L 1153.0 225.0 L 1152.0 277.0 L 1004.0 156.0 L 1000.0 157.0 L 900.0 236.0 Z"/>
  <path fill="#E90A46" fill-rule="evenodd" d="M 724.0 153.0 L 724.0 162.0 L 723.0 163.0 L 722.0 175.0 L 721.0 176.0 L 721.0 180.0 L 720.0 181.0 L 719.0 188.0 L 717.0 192.0 L 714.0 195.0 L 710.0 197.0 L 707.0 197.0 L 706.0 198.0 L 703.0 198.0 L 698.0 200.0 L 692.0 200.0 L 691.0 201.0 L 681.0 201.0 L 681.0 203.0 L 691.0 203.0 L 692.0 204.0 L 698.0 204.0 L 699.0 205.0 L 707.0 206.0 L 708.0 207.0 L 713.0 208.0 L 718.0 213.0 L 718.0 215.0 L 720.0 219.0 L 720.0 222.0 L 721.0 223.0 L 721.0 226.0 L 722.0 227.0 L 723.0 239.0 L 724.0 240.0 L 724.0 249.0 L 725.0 249.0 L 725.0 242.0 L 726.0 241.0 L 727.0 229.0 L 728.0 228.0 L 728.0 224.0 L 729.0 223.0 L 730.0 216.0 L 732.0 212.0 L 735.0 209.0 L 740.0 207.0 L 743.0 207.0 L 748.0 205.0 L 752.0 205.0 L 753.0 204.0 L 758.0 204.0 L 759.0 203.0 L 766.0 203.0 L 767.0 202.0 L 769.0 202.0 L 769.0 201.0 L 760.0 201.0 L 759.0 200.0 L 748.0 199.0 L 747.0 198.0 L 737.0 196.0 L 732.0 192.0 L 730.0 187.0 L 729.0 180.0 L 728.0 179.0 L 727.0 169.0 L 726.0 168.0 L 726.0 162.0 L 725.0 161.0 L 725.0 153.0 Z"/>
  <path fill="#6D7378" fill-rule="evenodd" d="M 1153.0 616.0 L 1153.0 665.0 L 1162.0 665.0 L 1162.0 633.0 L 1163.0 632.0 L 1178.0 652.0 L 1182.0 656.0 L 1185.0 661.0 L 1189.0 665.0 L 1196.0 665.0 L 1196.0 616.0 L 1188.0 616.0 L 1188.0 648.0 L 1187.0 649.0 L 1172.0 629.0 L 1168.0 625.0 L 1165.0 620.0 L 1161.0 616.0 Z"/>
  <path fill="#6D7378" fill-rule="evenodd" d="M 1067.0 616.0 L 1066.0 617.0 L 1066.0 664.0 L 1067.0 665.0 L 1075.0 665.0 L 1075.0 616.0 Z"/>
  <path fill="#6D7378" fill-rule="evenodd" d="M 946.0 616.0 L 946.0 665.0 L 954.0 665.0 L 955.0 664.0 L 955.0 634.0 L 954.0 633.0 L 955.0 631.0 L 960.0 638.0 L 965.0 643.0 L 967.0 647.0 L 971.0 651.0 L 981.0 665.0 L 989.0 665.0 L 989.0 616.0 L 981.0 616.0 L 980.0 617.0 L 980.0 647.0 L 979.0 648.0 L 954.0 616.0 Z"/>
  <path fill="#6D7378" fill-rule="evenodd" d="M 844.0 616.0 L 840.0 623.0 L 840.0 625.0 L 836.0 632.0 L 836.0 634.0 L 833.0 639.0 L 833.0 641.0 L 825.0 657.0 L 825.0 659.0 L 823.0 662.0 L 823.0 665.0 L 831.0 665.0 L 835.0 657.0 L 835.0 655.0 L 837.0 653.0 L 859.0 653.0 L 861.0 656.0 L 861.0 658.0 L 863.0 661.0 L 864.0 665.0 L 873.0 665.0 L 872.0 661.0 L 870.0 658.0 L 870.0 656.0 L 866.0 649.0 L 866.0 647.0 L 863.0 642.0 L 863.0 640.0 L 860.0 635.0 L 860.0 633.0 L 853.0 619.0 L 853.0 617.0 L 852.0 616.0 Z M 848.0 627.0 L 856.0 644.0 L 855.0 646.0 L 841.0 646.0 L 840.0 645.0 L 840.0 643.0 L 843.0 638.0 L 845.0 631.0 Z"/>
  <path fill="#6D7378" fill-rule="evenodd" d="M 714.0 616.0 L 714.0 665.0 L 750.0 665.0 L 750.0 657.0 L 724.0 657.0 L 723.0 656.0 L 723.0 645.0 L 724.0 644.0 L 746.0 644.0 L 747.0 643.0 L 747.0 637.0 L 739.0 637.0 L 738.0 636.0 L 724.0 636.0 L 723.0 635.0 L 723.0 625.0 L 724.0 624.0 L 750.0 624.0 L 750.0 616.0 Z"/>
  <path fill="#6D7378" fill-rule="evenodd" d="M 607.0 616.0 L 606.0 617.0 L 606.0 665.0 L 641.0 665.0 L 641.0 657.0 L 616.0 657.0 L 615.0 656.0 L 615.0 616.0 Z"/>
  <path fill="#6D7378" fill-rule="evenodd" d="M 1289.0 616.0 L 1282.0 619.0 L 1273.0 629.0 L 1273.0 631.0 L 1271.0 635.0 L 1271.0 647.0 L 1272.0 648.0 L 1272.0 650.0 L 1275.0 656.0 L 1280.0 661.0 L 1285.0 664.0 L 1291.0 665.0 L 1292.0 666.0 L 1301.0 666.0 L 1302.0 665.0 L 1308.0 664.0 L 1317.0 659.0 L 1317.0 638.0 L 1314.0 638.0 L 1313.0 637.0 L 1300.0 637.0 L 1299.0 638.0 L 1297.0 637.0 L 1296.0 638.0 L 1296.0 645.0 L 1307.0 645.0 L 1308.0 646.0 L 1308.0 654.0 L 1306.0 656.0 L 1301.0 658.0 L 1292.0 658.0 L 1288.0 656.0 L 1282.0 650.0 L 1280.0 645.0 L 1280.0 636.0 L 1283.0 630.0 L 1287.0 626.0 L 1291.0 624.0 L 1298.0 623.0 L 1299.0 624.0 L 1302.0 624.0 L 1308.0 628.0 L 1310.0 628.0 L 1314.0 623.0 L 1314.0 621.0 L 1310.0 618.0 L 1305.0 616.0 L 1300.0 616.0 L 1299.0 615.0 Z"/>
  <path fill="#6D7378" fill-rule="evenodd" d="M 511.0 615.0 L 510.0 616.0 L 505.0 616.0 L 500.0 618.0 L 492.0 625.0 L 488.0 633.0 L 488.0 636.0 L 487.0 637.0 L 487.0 645.0 L 488.0 646.0 L 489.0 652.0 L 495.0 660.0 L 504.0 665.0 L 507.0 665.0 L 508.0 666.0 L 516.0 666.0 L 527.0 662.0 L 531.0 658.0 L 531.0 656.0 L 527.0 652.0 L 526.0 652.0 L 521.0 656.0 L 516.0 658.0 L 509.0 658.0 L 508.0 657.0 L 506.0 657.0 L 499.0 651.0 L 497.0 647.0 L 497.0 644.0 L 496.0 643.0 L 497.0 634.0 L 500.0 629.0 L 507.0 624.0 L 518.0 624.0 L 522.0 626.0 L 525.0 629.0 L 527.0 629.0 L 531.0 624.0 L 531.0 622.0 L 523.0 617.0 Z"/>
</svg>